# xmcd CD database file
#
# Track frame offsets:
#	150
#	31350
#	53250
#	79350
#	107250
#	156300
#
# Disc length: 2846 seconds
#
# Revision: 0
# Processed by: cddbd v1.5.1PL2 Copyright (c) Steve Scherf et al.
# Submitted via: CDex 1.51
#
DISCID=3b0b1c06
DTITLE=Johnny Winter - Captured Live!
DYEAR=1900
DGENRE=Blues
TTITLE0=Bony Maronie
TTITLE1=Roll with me
TTITLE2=Rock&Roll poeple
TTITLE3=It´s all over now
TTITLE4=Highway 61 revisted
TTITLE5=Sweet Papa John
EXTD=
EXTT0=
EXTT1=
EXTT2=
EXTT3=
EXTT4=
EXTT5=
PLAYORDER=
